<?xml version="1.0" encoding="UTF-8"?>
<svg xmlns="http://www.w3.org/2000/svg" width="529" height="456" viewBox="0 0 529 456">
  <path d="M 200 309 L 196 309 L 193 311 L 190 317 L 190 320 L 186 325 L 182 325 L 181 326 L 163 326 L 162 325 L 156 325 L 136 348 L 129 347 L 126 350 L 124 354 L 125 359 L 121 362 L 112 363 L 105 360 L 103 358 L 104 342 L 94 337 L 88 337 L 76 341 L 71 344 L 69 344 L 66 347 L 66 349 L 64 352 L 64 355 L 62 358 L 62 363 L 59 371 L 59 378 L 58 379 L 58 386 L 59 388 L 66 393 L 73 393 L 80 391 L 93 391 L 95 393 L 101 395 L 101 399 L 99 403 L 92 410 L 87 413 L 84 417 L 84 424 L 86 429 L 87 438 L 92 444 L 94 445 L 109 446 L 110 447 L 122 447 L 123 446 L 134 445 L 143 441 L 144 439 L 144 425 L 147 418 L 150 415 L 153 409 L 153 407 L 152 406 L 152 403 L 149 398 L 147 397 L 137 397 L 132 395 L 130 393 L 130 385 L 131 384 L 132 377 L 133 375 L 138 371 L 141 371 L 142 372 L 150 371 L 153 367 L 153 361 L 155 359 L 159 357 L 174 345 L 176 345 L 180 341 L 183 340 L 186 337 L 198 330 L 201 326 L 202 318 L 203 317 L 202 312 Z M 388 285 L 381 294 L 378 301 L 376 303 L 376 305 L 371 310 L 371 312 L 376 316 L 378 316 L 381 319 L 384 320 L 385 322 L 392 326 L 406 337 L 412 340 L 421 347 L 425 349 L 424 352 L 424 357 L 426 360 L 435 359 L 439 367 L 439 371 L 434 375 L 425 375 L 417 378 L 416 380 L 417 405 L 419 407 L 425 410 L 427 410 L 429 412 L 431 412 L 439 417 L 446 426 L 452 431 L 462 431 L 463 430 L 468 430 L 469 429 L 473 429 L 480 427 L 484 424 L 489 417 L 491 411 L 491 406 L 488 401 L 487 397 L 483 392 L 482 388 L 478 382 L 478 378 L 481 377 L 482 374 L 487 369 L 493 367 L 496 367 L 497 368 L 504 367 L 510 361 L 519 346 L 520 343 L 520 337 L 516 331 L 497 313 L 495 312 L 488 312 L 487 313 L 484 313 L 479 316 L 475 323 L 468 331 L 458 336 L 450 336 L 448 334 L 447 328 L 444 325 L 442 325 L 438 328 L 435 328 L 420 315 L 418 311 L 411 305 L 402 294 L 392 284 Z M 307 99 L 299 98 L 298 97 L 268 97 L 267 98 L 252 98 L 251 99 L 234 100 L 233 101 L 224 102 L 219 104 L 217 109 L 215 109 L 213 106 L 211 106 L 208 108 L 208 111 L 209 112 L 209 122 L 208 123 L 205 122 L 201 111 L 196 111 L 185 117 L 183 117 L 181 119 L 177 120 L 171 126 L 163 140 L 157 147 L 156 150 L 141 167 L 132 175 L 129 182 L 129 204 L 130 205 L 131 225 L 141 232 L 147 238 L 149 241 L 150 247 L 152 248 L 152 250 L 147 255 L 145 255 L 140 258 L 136 258 L 134 260 L 132 269 L 129 275 L 130 287 L 132 289 L 137 289 L 142 285 L 144 285 L 145 286 L 146 293 L 151 296 L 158 305 L 160 309 L 161 315 L 163 317 L 168 317 L 169 318 L 179 317 L 181 315 L 183 307 L 192 299 L 194 299 L 197 297 L 205 296 L 206 297 L 206 301 L 210 305 L 214 313 L 214 321 L 209 336 L 209 339 L 212 343 L 222 348 L 225 348 L 226 349 L 234 348 L 242 336 L 246 323 L 249 324 L 250 338 L 251 339 L 251 349 L 254 351 L 260 351 L 261 352 L 273 352 L 275 351 L 277 348 L 277 343 L 274 342 L 273 339 L 279 336 L 279 331 L 281 326 L 284 327 L 285 332 L 289 339 L 290 343 L 295 348 L 300 348 L 304 346 L 314 344 L 323 338 L 323 334 L 319 326 L 317 316 L 316 315 L 316 303 L 317 302 L 317 297 L 320 288 L 330 288 L 332 290 L 336 291 L 345 301 L 358 301 L 359 300 L 363 300 L 367 296 L 369 288 L 374 280 L 383 272 L 392 267 L 398 266 L 401 262 L 400 253 L 397 248 L 397 243 L 393 236 L 391 235 L 384 235 L 377 232 L 374 232 L 369 229 L 365 225 L 365 223 L 367 221 L 370 213 L 378 203 L 381 197 L 381 183 L 380 182 L 380 175 L 379 174 L 379 167 L 374 159 L 371 157 L 359 143 L 357 142 L 350 143 L 349 142 L 349 133 L 348 131 L 333 118 L 330 114 L 326 112 L 314 102 Z M 248 242 L 253 241 L 257 244 L 265 254 L 267 255 L 268 259 L 273 267 L 273 270 L 276 276 L 276 279 L 277 280 L 277 287 L 276 288 L 274 288 L 271 285 L 264 275 L 260 272 L 259 270 L 256 270 L 245 287 L 242 290 L 239 289 L 242 280 L 242 277 L 246 267 L 246 250 L 245 249 L 245 245 Z M 339 223 L 342 222 L 343 225 L 340 226 Z M 195 178 L 201 178 L 210 181 L 219 188 L 224 194 L 225 198 L 228 202 L 229 211 L 231 216 L 230 232 L 226 242 L 219 250 L 211 255 L 204 257 L 201 257 L 200 254 L 195 251 L 189 244 L 183 230 L 183 223 L 182 222 L 182 204 L 183 203 L 183 199 L 186 193 L 186 191 L 193 183 L 193 180 Z M 306 148 L 313 148 L 314 149 L 314 153 L 315 153 L 323 162 L 328 171 L 329 178 L 331 181 L 331 185 L 332 186 L 332 192 L 333 193 L 332 221 L 331 222 L 331 226 L 329 230 L 328 236 L 325 241 L 325 246 L 323 248 L 317 250 L 313 250 L 312 251 L 303 251 L 302 250 L 293 249 L 290 247 L 288 247 L 282 243 L 274 235 L 269 222 L 268 201 L 262 199 L 263 196 L 268 196 L 269 195 L 274 176 L 283 161 L 286 159 L 288 156 L 294 152 Z M 48 29 L 40 39 L 40 50 L 49 67 L 51 75 L 48 76 L 42 84 L 40 85 L 28 85 L 27 86 L 24 86 L 17 93 L 9 106 L 8 117 L 10 121 L 19 129 L 27 138 L 33 141 L 38 141 L 46 138 L 51 133 L 54 127 L 64 119 L 69 117 L 78 117 L 79 118 L 79 122 L 82 127 L 87 127 L 89 125 L 94 126 L 114 144 L 124 155 L 127 157 L 131 157 L 141 148 L 148 138 L 148 134 L 145 132 L 143 132 L 142 130 L 127 120 L 125 120 L 124 118 L 115 113 L 104 104 L 104 98 L 101 93 L 92 93 L 90 90 L 90 82 L 93 79 L 99 79 L 100 78 L 110 77 L 113 73 L 113 52 L 112 49 L 110 47 L 100 42 L 97 42 L 93 38 L 90 37 L 78 23 L 64 24 L 63 25 L 55 26 Z M 428 11 L 421 9 L 414 9 L 413 8 L 391 8 L 384 11 L 381 11 L 377 14 L 376 16 L 376 22 L 377 23 L 376 32 L 369 41 L 369 51 L 372 55 L 375 56 L 384 56 L 387 57 L 390 60 L 390 73 L 387 78 L 383 82 L 375 81 L 370 83 L 369 85 L 369 91 L 362 96 L 358 100 L 344 108 L 344 112 L 359 125 L 359 129 L 364 129 L 367 127 L 385 104 L 388 104 L 389 105 L 393 104 L 397 99 L 397 96 L 395 95 L 395 93 L 399 90 L 407 89 L 415 92 L 418 99 L 417 102 L 417 110 L 424 114 L 427 114 L 428 115 L 436 114 L 444 110 L 451 108 L 454 105 L 456 100 L 456 96 L 459 88 L 459 82 L 461 77 L 461 67 L 459 64 L 454 61 L 443 61 L 442 62 L 429 63 L 426 62 L 424 59 L 420 59 L 419 58 L 419 54 L 423 47 L 435 38 L 435 27 L 433 23 L 433 19 L 431 16 L 431 14 Z" fill="#ffffff" fill-rule="evenodd"/>
</svg>
